<?xml version="1.0" encoding="UTF-8" standalone="no"?><svg xmlns="http://www.w3.org/2000/svg" xmlns:xlink="http://www.w3.org/1999/xlink" contentScriptType="application/ecmascript" contentStyleType="text/css" height="1322px" preserveAspectRatio="none" style="width:1256px;height:1322px;" version="1.1" viewBox="0 0 1256 1322" width="1256px" zoomAndPan="magnify"><defs><filter height="300%" id="fsazh9q8n222i" width="300%" x="-1" y="-1"><feGaussianBlur result="blurOut" stdDeviation="2.0"/><feColorMatrix in="blurOut" result="blurOut2" type="matrix" values="0 0 0 0 0 0 0 0 0 0 0 0 0 0 0 0 0 0 .4 0"/><feOffset dx="4.0" dy="4.0" in="blurOut2" result="blurOut3"/><feBlend in="SourceGraphic" in2="blurOut3" mode="normal"/></filter></defs><g><rect fill="#FFFFFF" filter="url(#fsazh9q8n222i)" height="177.6016" style="stroke: #000000; stroke-width: 2.0;" width="672" x="13" y="161.5625"/><rect fill="#FFFFFF" height="43.9375" style="stroke: none; stroke-width: 1.0;" width="672" x="13" y="295.2266"/><rect fill="#FFFFFF" filter="url(#fsazh9q8n222i)" height="206.7344" style="stroke: #000000; stroke-width: 2.0;" width="1231" x="13" y="644.4922"/><rect fill="#FFFFFF" height="131.3359" style="stroke: none; stroke-width: 1.0;" width="1231" x="13" y="719.8906"/><rect fill="#FFFFFF" filter="url(#fsazh9q8n222i)" height="135.6641" style="stroke: #000000; stroke-width: 2.0;" width="1231" x="13" y="1082.1563"/><rect fill="#FFFFFF" height="89.3984" style="stroke: none; stroke-width: 1.0;" width="1231" x="13" y="1128.4219"/><line style="stroke: #A80036; stroke-width: 1.0; stroke-dasharray: 5.0,5.0;" x1="42" x2="42" y1="86.2969" y2="1234.8203"/><line style="stroke: #A80036; stroke-width: 1.0; stroke-dasharray: 5.0,5.0;" x1="427" x2="427" y1="86.2969" y2="1234.8203"/><line style="stroke: #A80036; stroke-width: 1.0; stroke-dasharray: 5.0,5.0;" x1="623" x2="623" y1="86.2969" y2="1234.8203"/><line style="stroke: #A80036; stroke-width: 1.0; stroke-dasharray: 5.0,5.0;" x1="750" x2="750" y1="86.2969" y2="1234.8203"/><line style="stroke: #A80036; stroke-width: 1.0; stroke-dasharray: 5.0,5.0;" x1="881" x2="881" y1="86.2969" y2="1234.8203"/><line style="stroke: #A80036; stroke-width: 1.0; stroke-dasharray: 5.0,5.0;" x1="1017" x2="1017" y1="86.2969" y2="1234.8203"/><line style="stroke: #A80036; stroke-width: 1.0; stroke-dasharray: 5.0,5.0;" x1="1166" x2="1166" y1="86.2969" y2="1234.8203"/><text fill="#000000" font-family="sans-serif" font-size="14" lengthAdjust="spacingAndGlyphs" textLength="32" x="23" y="82.9951">User</text><ellipse cx="42" cy="13" fill="#FEFECE" filter="url(#fsazh9q8n222i)" rx="8" ry="8" style="stroke: #A80036; stroke-width: 2.0;"/><path d="M42,21 L42,48 M29,29 L55,29 M42,48 L29,63 M42,48 L55,63 " fill="none" filter="url(#fsazh9q8n222i)" style="stroke: #A80036; stroke-width: 2.0;"/><text fill="#000000" font-family="sans-serif" font-size="14" lengthAdjust="spacingAndGlyphs" textLength="32" x="23" y="1246.8154">User</text><ellipse cx="42" cy="1260.1172" fill="#FEFECE" filter="url(#fsazh9q8n222i)" rx="8" ry="8" style="stroke: #A80036; stroke-width: 2.0;"/><path d="M42,1268.1172 L42,1295.1172 M29,1276.1172 L55,1276.1172 M42,1295.1172 L29,1310.1172 M42,1295.1172 L55,1310.1172 " fill="none" filter="url(#fsazh9q8n222i)" style="stroke: #A80036; stroke-width: 2.0;"/><rect fill="#FEFECE" filter="url(#fsazh9q8n222i)" height="30.2969" style="stroke: #A80036; stroke-width: 1.5;" width="138" x="356" y="51"/><text fill="#000000" font-family="sans-serif" font-size="14" lengthAdjust="spacingAndGlyphs" textLength="124" x="363" y="70.9951">BookMyShow App</text><rect fill="#FEFECE" filter="url(#fsazh9q8n222i)" height="30.2969" style="stroke: #A80036; stroke-width: 1.5;" width="138" x="356" y="1233.8203"/><text fill="#000000" font-family="sans-serif" font-size="14" lengthAdjust="spacingAndGlyphs" textLength="124" x="363" y="1253.8154">BookMyShow App</text><rect fill="#FEFECE" filter="url(#fsazh9q8n222i)" height="30.2969" style="stroke: #A80036; stroke-width: 1.5;" width="100" x="571" y="51"/><text fill="#000000" font-family="sans-serif" font-size="14" lengthAdjust="spacingAndGlyphs" textLength="86" x="578" y="70.9951">Auth Service</text><rect fill="#FEFECE" filter="url(#fsazh9q8n222i)" height="30.2969" style="stroke: #A80036; stroke-width: 1.5;" width="100" x="571" y="1233.8203"/><text fill="#000000" font-family="sans-serif" font-size="14" lengthAdjust="spacingAndGlyphs" textLength="86" x="578" y="1253.8154">Auth Service</text><rect fill="#FEFECE" filter="url(#fsazh9q8n222i)" height="30.2969" style="stroke: #A80036; stroke-width: 1.5;" width="126" x="685" y="51"/><text fill="#000000" font-family="sans-serif" font-size="14" lengthAdjust="spacingAndGlyphs" textLength="112" x="692" y="70.9951">Location Service</text><rect fill="#FEFECE" filter="url(#fsazh9q8n222i)" height="30.2969" style="stroke: #A80036; stroke-width: 1.5;" width="126" x="685" y="1233.8203"/><text fill="#000000" font-family="sans-serif" font-size="14" lengthAdjust="spacingAndGlyphs" textLength="112" x="692" y="1253.8154">Location Service</text><rect fill="#FEFECE" filter="url(#fsazh9q8n222i)" height="30.2969" style="stroke: #A80036; stroke-width: 1.5;" width="108" x="825" y="51"/><text fill="#000000" font-family="sans-serif" font-size="14" lengthAdjust="spacingAndGlyphs" textLength="94" x="832" y="70.9951">Movie Service</text><rect fill="#FEFECE" filter="url(#fsazh9q8n222i)" height="30.2969" style="stroke: #A80036; stroke-width: 1.5;" width="108" x="825" y="1233.8203"/><text fill="#000000" font-family="sans-serif" font-size="14" lengthAdjust="spacingAndGlyphs" textLength="94" x="832" y="1253.8154">Movie Service</text><rect fill="#FEFECE" filter="url(#fsazh9q8n222i)" height="30.2969" style="stroke: #A80036; stroke-width: 1.5;" width="137" x="947" y="51"/><text fill="#000000" font-family="sans-serif" font-size="14" lengthAdjust="spacingAndGlyphs" textLength="123" x="954" y="70.9951">Payment Gateway</text><rect fill="#FEFECE" filter="url(#fsazh9q8n222i)" height="30.2969" style="stroke: #A80036; stroke-width: 1.5;" width="137" x="947" y="1233.8203"/><text fill="#000000" font-family="sans-serif" font-size="14" lengthAdjust="spacingAndGlyphs" textLength="123" x="954" y="1253.8154">Payment Gateway</text><rect fill="#FEFECE" filter="url(#fsazh9q8n222i)" height="30.2969" style="stroke: #A80036; stroke-width: 1.5;" width="132" x="1098" y="51"/><text fill="#000000" font-family="sans-serif" font-size="14" lengthAdjust="spacingAndGlyphs" textLength="118" x="1105" y="70.9951">Ticketing System</text><rect fill="#FEFECE" filter="url(#fsazh9q8n222i)" height="30.2969" style="stroke: #A80036; stroke-width: 1.5;" width="132" x="1098" y="1233.8203"/><text fill="#000000" font-family="sans-serif" font-size="14" lengthAdjust="spacingAndGlyphs" textLength="118" x="1105" y="1253.8154">Ticketing System</text><polygon fill="#A80036" points="415,113.4297,425,117.4297,415,121.4297,419,117.4297" style="stroke: #A80036; stroke-width: 1.0;"/><line style="stroke: #A80036; stroke-width: 1.0;" x1="42" x2="421" y1="117.4297" y2="117.4297"/><text fill="#000000" font-family="sans-serif" font-size="13" lengthAdjust="spacingAndGlyphs" textLength="63" x="49" y="112.3638">Open App</text><polygon fill="#A80036" points="611,142.5625,621,146.5625,611,150.5625,615,146.5625" style="stroke: #A80036; stroke-width: 1.0;"/><line style="stroke: #A80036; stroke-width: 1.0;" x1="427" x2="617" y1="146.5625" y2="146.5625"/><text fill="#000000" font-family="sans-serif" font-size="13" lengthAdjust="spacingAndGlyphs" textLength="160" x="434" y="141.4966">Check if User is logged in</text><path d="M13,161.5625 L77,161.5625 L77,168.5625 L67,178.5625 L13,178.5625 L13,161.5625 " fill="#EEEEEE" style="stroke: #000000; stroke-width: 1.0;"/><rect fill="none" height="177.6016" style="stroke: #000000; stroke-width: 2.0;" width="672" x="13" y="161.5625"/><text fill="#000000" font-family="sans-serif" font-size="13" font-weight="bold" lengthAdjust="spacingAndGlyphs" textLength="19" x="28" y="174.6294">alt</text><text fill="#000000" font-family="sans-serif" font-size="11" font-weight="bold" lengthAdjust="spacingAndGlyphs" textLength="132" x="92" y="173.7729">[User Not Logged In]</text><polygon fill="#A80036" points="53,195.8281,43,199.8281,53,203.8281,49,199.8281" style="stroke: #A80036; stroke-width: 1.0;"/><line style="stroke: #A80036; stroke-width: 1.0;" x1="47" x2="426" y1="199.8281" y2="199.8281"/><text fill="#000000" font-family="sans-serif" font-size="13" lengthAdjust="spacingAndGlyphs" textLength="209" x="59" y="194.7622">Show login or registration screen</text><polygon fill="#A80036" points="415,224.9609,425,228.9609,415,232.9609,419,228.9609" style="stroke: #A80036; stroke-width: 1.0;"/><line style="stroke: #A80036; stroke-width: 1.0;" x1="42" x2="421" y1="228.9609" y2="228.9609"/><text fill="#000000" font-family="sans-serif" font-size="13" lengthAdjust="spacingAndGlyphs" textLength="107" x="49" y="223.895">Login or Register</text><polygon fill="#A80036" points="611,254.0938,621,258.0938,611,262.0938,615,258.0938" style="stroke: #A80036; stroke-width: 1.0;"/><line style="stroke: #A80036; stroke-width: 1.0;" x1="427" x2="617" y1="258.0938" y2="258.0938"/><text fill="#000000" font-family="sans-serif" font-size="13" lengthAdjust="spacingAndGlyphs" textLength="114" x="434" y="253.0278">Authenticate user</text><polygon fill="#A80036" points="438,283.2266,428,287.2266,438,291.2266,434,287.2266" style="stroke: #A80036; stroke-width: 1.0;"/><line style="stroke: #A80036; stroke-width: 1.0;" x1="432" x2="622" y1="287.2266" y2="287.2266"/><text fill="#000000" font-family="sans-serif" font-size="13" lengthAdjust="spacingAndGlyphs" textLength="172" x="444" y="282.1606">User logged in successfully</text><line style="stroke: #000000; stroke-width: 1.0; stroke-dasharray: 2.0,2.0;" x1="13" x2="685" y1="296.2266" y2="296.2266"/><text fill="#000000" font-family="sans-serif" font-size="11" font-weight="bold" lengthAdjust="spacingAndGlyphs" textLength="106" x="18" y="306.437">[User Logged In]</text><polygon fill="#A80036" points="438,327.1641,428,331.1641,438,335.1641,434,331.1641" style="stroke: #A80036; stroke-width: 1.0;"/><line style="stroke: #A80036; stroke-width: 1.0;" x1="432" x2="622" y1="331.1641" y2="331.1641"/><text fill="#000000" font-family="sans-serif" font-size="13" lengthAdjust="spacingAndGlyphs" textLength="157" x="444" y="326.0981">User is already logged in</text><polygon fill="#A80036" points="53,363.2969,43,367.2969,53,371.2969,49,367.2969" style="stroke: #A80036; stroke-width: 1.0;"/><line style="stroke: #A80036; stroke-width: 1.0;" x1="47" x2="426" y1="367.2969" y2="367.2969"/><text fill="#000000" font-family="sans-serif" font-size="13" lengthAdjust="spacingAndGlyphs" textLength="204" x="59" y="362.231">Prompt to input current location</text><polygon fill="#A80036" points="415,392.4297,425,396.4297,415,400.4297,419,396.4297" style="stroke: #A80036; stroke-width: 1.0;"/><line style="stroke: #A80036; stroke-width: 1.0;" x1="42" x2="421" y1="396.4297" y2="396.4297"/><text fill="#000000" font-family="sans-serif" font-size="13" lengthAdjust="spacingAndGlyphs" textLength="164" x="49" y="391.3638">Enter current city/location</text><polygon fill="#A80036" points="738,421.5625,748,425.5625,738,429.5625,742,425.5625" style="stroke: #A80036; stroke-width: 1.0;"/><line style="stroke: #A80036; stroke-width: 1.0;" x1="427" x2="744" y1="425.5625" y2="425.5625"/><text fill="#000000" font-family="sans-serif" font-size="13" lengthAdjust="spacingAndGlyphs" textLength="268" x="434" y="420.4966">Fetch available cities and validate location</text><polygon fill="#A80036" points="438,450.6953,428,454.6953,438,458.6953,434,454.6953" style="stroke: #A80036; stroke-width: 1.0;"/><line style="stroke: #A80036; stroke-width: 1.0;" x1="432" x2="749" y1="454.6953" y2="454.6953"/><text fill="#000000" font-family="sans-serif" font-size="13" lengthAdjust="spacingAndGlyphs" textLength="129" x="444" y="449.6294">Return valid location</text><polygon fill="#A80036" points="869,479.8281,879,483.8281,869,487.8281,873,483.8281" style="stroke: #A80036; stroke-width: 1.0;"/><line style="stroke: #A80036; stroke-width: 1.0;" x1="427" x2="875" y1="483.8281" y2="483.8281"/><text fill="#000000" font-family="sans-serif" font-size="13" lengthAdjust="spacingAndGlyphs" textLength="269" x="434" y="478.7622">Fetch movies available in the selected city</text><polygon fill="#A80036" points="438,508.9609,428,512.9609,438,516.9609,434,512.9609" style="stroke: #A80036; stroke-width: 1.0;"/><line style="stroke: #A80036; stroke-width: 1.0;" x1="432" x2="880" y1="512.9609" y2="512.9609"/><text fill="#000000" font-family="sans-serif" font-size="13" lengthAdjust="spacingAndGlyphs" textLength="256" x="444" y="507.895">Return list of movies available in the city</text><polygon fill="#A80036" points="415,538.0938,425,542.0938,415,546.0938,419,542.0938" style="stroke: #A80036; stroke-width: 1.0;"/><line style="stroke: #A80036; stroke-width: 1.0;" x1="42" x2="421" y1="542.0938" y2="542.0938"/><text fill="#000000" font-family="sans-serif" font-size="13" lengthAdjust="spacingAndGlyphs" textLength="83" x="49" y="537.0278">Select movie</text><polygon fill="#A80036" points="869,567.2266,879,571.2266,869,575.2266,873,571.2266" style="stroke: #A80036; stroke-width: 1.0;"/><line style="stroke: #A80036; stroke-width: 1.0;" x1="427" x2="875" y1="571.2266" y2="571.2266"/><text fill="#000000" font-family="sans-serif" font-size="13" lengthAdjust="spacingAndGlyphs" textLength="224" x="434" y="566.1606">Fetch movie details and showtimes</text><polygon fill="#A80036" points="438,596.3594,428,600.3594,438,604.3594,434,600.3594" style="stroke: #A80036; stroke-width: 1.0;"/><line style="stroke: #A80036; stroke-width: 1.0;" x1="432" x2="880" y1="600.3594" y2="600.3594"/><text fill="#000000" font-family="sans-serif" font-size="13" lengthAdjust="spacingAndGlyphs" textLength="231" x="444" y="595.2935">Return movie details and showtimes</text><polygon fill="#A80036" points="415,625.4922,425,629.4922,415,633.4922,419,629.4922" style="stroke: #A80036; stroke-width: 1.0;"/><line style="stroke: #A80036; stroke-width: 1.0;" x1="42" x2="421" y1="629.4922" y2="629.4922"/><text fill="#000000" font-family="sans-serif" font-size="13" lengthAdjust="spacingAndGlyphs" textLength="134" x="49" y="624.4263">Select date and time</text><path d="M13,644.4922 L77,644.4922 L77,651.4922 L67,661.4922 L13,661.4922 L13,644.4922 " fill="#EEEEEE" style="stroke: #000000; stroke-width: 1.0;"/><rect fill="none" height="206.7344" style="stroke: #000000; stroke-width: 2.0;" width="1231" x="13" y="644.4922"/><text fill="#000000" font-family="sans-serif" font-size="13" font-weight="bold" lengthAdjust="spacingAndGlyphs" textLength="19" x="28" y="657.5591">alt</text><text fill="#000000" font-family="sans-serif" font-size="11" font-weight="bold" lengthAdjust="spacingAndGlyphs" textLength="143" x="92" y="656.7026">[Showtimes Available]</text><polygon fill="#A80036" points="1154,678.7578,1164,682.7578,1154,686.7578,1158,682.7578" style="stroke: #A80036; stroke-width: 1.0;"/><line style="stroke: #A80036; stroke-width: 1.0;" x1="427" x2="1160" y1="682.7578" y2="682.7578"/><text fill="#000000" font-family="sans-serif" font-size="13" lengthAdjust="spacingAndGlyphs" textLength="141" x="434" y="677.6919">Check seat availability</text><polygon fill="#A80036" points="438,707.8906,428,711.8906,438,715.8906,434,711.8906" style="stroke: #A80036; stroke-width: 1.0;"/><line style="stroke: #A80036; stroke-width: 1.0;" x1="432" x2="1165" y1="711.8906" y2="711.8906"/><text fill="#000000" font-family="sans-serif" font-size="13" lengthAdjust="spacingAndGlyphs" textLength="97" x="444" y="706.8247">Seats available</text><line style="stroke: #000000; stroke-width: 1.0; stroke-dasharray: 2.0,2.0;" x1="13" x2="1244" y1="720.8906" y2="720.8906"/><text fill="#000000" font-family="sans-serif" font-size="11" font-weight="bold" lengthAdjust="spacingAndGlyphs" textLength="169" x="18" y="731.1011">[Showtimes Not Available]</text><polygon fill="#A80036" points="53,751.8281,43,755.8281,53,759.8281,49,755.8281" style="stroke: #A80036; stroke-width: 1.0;"/><line style="stroke: #A80036; stroke-width: 1.0;" x1="47" x2="426" y1="755.8281" y2="755.8281"/><text fill="#000000" font-family="sans-serif" font-size="13" lengthAdjust="spacingAndGlyphs" textLength="225" x="59" y="750.7622">Prompt user to select another date</text><polygon fill="#A80036" points="415,780.9609,425,784.9609,415,788.9609,419,784.9609" style="stroke: #A80036; stroke-width: 1.0;"/><line style="stroke: #A80036; stroke-width: 1.0;" x1="42" x2="421" y1="784.9609" y2="784.9609"/><text fill="#000000" font-family="sans-serif" font-size="13" lengthAdjust="spacingAndGlyphs" textLength="111" x="49" y="779.895">Select other date</text><polygon fill="#A80036" points="869,810.0938,879,814.0938,869,818.0938,873,814.0938" style="stroke: #A80036; stroke-width: 1.0;"/><line style="stroke: #A80036; stroke-width: 1.0;" x1="427" x2="875" y1="814.0938" y2="814.0938"/><text fill="#000000" font-family="sans-serif" font-size="13" lengthAdjust="spacingAndGlyphs" textLength="307" x="434" y="809.0278">Fetch movie details and showtimes for new date</text><polygon fill="#A80036" points="438,839.2266,428,843.2266,438,847.2266,434,843.2266" style="stroke: #A80036; stroke-width: 1.0;"/><line style="stroke: #A80036; stroke-width: 1.0;" x1="432" x2="880" y1="843.2266" y2="843.2266"/><text fill="#000000" font-family="sans-serif" font-size="13" lengthAdjust="spacingAndGlyphs" textLength="143" x="444" y="838.1606">Return new showtimes</text><polygon fill="#A80036" points="415,875.3594,425,879.3594,415,883.3594,419,879.3594" style="stroke: #A80036; stroke-width: 1.0;"/><line style="stroke: #A80036; stroke-width: 1.0;" x1="42" x2="421" y1="879.3594" y2="879.3594"/><text fill="#000000" font-family="sans-serif" font-size="13" lengthAdjust="spacingAndGlyphs" textLength="158" x="49" y="874.2935">Select theater and seats</text><polygon fill="#A80036" points="1154,904.4922,1164,908.4922,1154,912.4922,1158,908.4922" style="stroke: #A80036; stroke-width: 1.0;"/><line style="stroke: #A80036; stroke-width: 1.0;" x1="427" x2="1160" y1="908.4922" y2="908.4922"/><text fill="#000000" font-family="sans-serif" font-size="13" lengthAdjust="spacingAndGlyphs" textLength="265" x="434" y="903.4263">Check seat availability in selected theater</text><polygon fill="#A80036" points="438,933.625,428,937.625,438,941.625,434,937.625" style="stroke: #A80036; stroke-width: 1.0;"/><line style="stroke: #A80036; stroke-width: 1.0;" x1="432" x2="1165" y1="937.625" y2="937.625"/><text fill="#000000" font-family="sans-serif" font-size="13" lengthAdjust="spacingAndGlyphs" textLength="174" x="444" y="932.5591">Confirm seats are available</text><polygon fill="#A80036" points="415,962.7578,425,966.7578,415,970.7578,419,966.7578" style="stroke: #A80036; stroke-width: 1.0;"/><line style="stroke: #A80036; stroke-width: 1.0;" x1="42" x2="421" y1="966.7578" y2="966.7578"/><text fill="#000000" font-family="sans-serif" font-size="13" lengthAdjust="spacingAndGlyphs" textLength="130" x="49" y="961.6919">Proceed to payment</text><polygon fill="#A80036" points="1005.5,991.8906,1015.5,995.8906,1005.5,999.8906,1009.5,995.8906" style="stroke: #A80036; stroke-width: 1.0;"/><line style="stroke: #A80036; stroke-width: 1.0;" x1="427" x2="1011.5" y1="995.8906" y2="995.8906"/><text fill="#000000" font-family="sans-serif" font-size="13" lengthAdjust="spacingAndGlyphs" textLength="112" x="434" y="990.8247">Initialize payment</text><line style="stroke: #A80036; stroke-width: 1.0;" x1="1017.5" x2="1059.5" y1="1025.0234" y2="1025.0234"/><line style="stroke: #A80036; stroke-width: 1.0;" x1="1059.5" x2="1059.5" y1="1025.0234" y2="1038.0234"/><line style="stroke: #A80036; stroke-width: 1.0;" x1="1018.5" x2="1059.5" y1="1038.0234" y2="1038.0234"/><polygon fill="#A80036" points="1028.5,1034.0234,1018.5,1038.0234,1028.5,1042.0234,1024.5,1038.0234" style="stroke: #A80036; stroke-width: 1.0;"/><text fill="#000000" font-family="sans-serif" font-size="13" lengthAdjust="spacingAndGlyphs" textLength="111" x="1024.5" y="1019.9575">Process payment</text><polygon fill="#A80036" points="438,1063.1563,428,1067.1563,438,1071.1563,434,1067.1563" style="stroke: #A80036; stroke-width: 1.0;"/><line style="stroke: #A80036; stroke-width: 1.0;" x1="432" x2="1016.5" y1="1067.1563" y2="1067.1563"/><text fill="#000000" font-family="sans-serif" font-size="13" lengthAdjust="spacingAndGlyphs" textLength="127" x="444" y="1062.0903">Payment successful</text><path d="M13,1082.1563 L77,1082.1563 L77,1089.1563 L67,1099.1563 L13,1099.1563 L13,1082.1563 " fill="#EEEEEE" style="stroke: #000000; stroke-width: 1.0;"/><rect fill="none" height="135.6641" style="stroke: #000000; stroke-width: 2.0;" width="1231" x="13" y="1082.1563"/><text fill="#000000" font-family="sans-serif" font-size="13" font-weight="bold" lengthAdjust="spacingAndGlyphs" textLength="19" x="28" y="1095.2231">alt</text><text fill="#000000" font-family="sans-serif" font-size="11" font-weight="bold" lengthAdjust="spacingAndGlyphs" textLength="109" x="92" y="1094.3667">[Payment Failed]</text><polygon fill="#A80036" points="53,1116.4219,43,1120.4219,53,1124.4219,49,1120.4219" style="stroke: #A80036; stroke-width: 1.0;"/><line style="stroke: #A80036; stroke-width: 1.0;" x1="47" x2="426" y1="1120.4219" y2="1120.4219"/><text fill="#000000" font-family="sans-serif" font-size="13" lengthAdjust="spacingAndGlyphs" textLength="361" x="59" y="1115.356">Payment failed, retry or select another payment method</text><line style="stroke: #000000; stroke-width: 1.0; stroke-dasharray: 2.0,2.0;" x1="13" x2="1244" y1="1129.4219" y2="1129.4219"/><polygon fill="#A80036" points="1154,1147.5547,1164,1151.5547,1154,1155.5547,1158,1151.5547" style="stroke: #A80036; stroke-width: 1.0;"/><line style="stroke: #A80036; stroke-width: 1.0;" x1="427" x2="1160" y1="1151.5547" y2="1151.5547"/><text fill="#000000" font-family="sans-serif" font-size="13" lengthAdjust="spacingAndGlyphs" textLength="215" x="434" y="1146.4888">Confirm booking and issue tickets</text><polygon fill="#A80036" points="438,1176.6875,428,1180.6875,438,1184.6875,434,1180.6875" style="stroke: #A80036; stroke-width: 1.0;"/><line style="stroke: #A80036; stroke-width: 1.0;" x1="432" x2="1165" y1="1180.6875" y2="1180.6875"/><text fill="#000000" font-family="sans-serif" font-size="13" lengthAdjust="spacingAndGlyphs" textLength="224" x="444" y="1175.6216">Booking confirmed, generate ticket</text><polygon fill="#A80036" points="53,1205.8203,43,1209.8203,53,1213.8203,49,1209.8203" style="stroke: #A80036; stroke-width: 1.0;"/><line style="stroke: #A80036; stroke-width: 1.0;" x1="47" x2="426" y1="1209.8203" y2="1209.8203"/><text fill="#000000" font-family="sans-serif" font-size="13" lengthAdjust="spacingAndGlyphs" textLength="285" x="59" y="1204.7544">Show booking confirmation and ticket details</text><!--MD5=[bb667b596f8200d3c53ac10c6260bb46]
@startuml 
actor User
participant "BookMyShow App" as BMSApp
participant "Auth Service" as Auth
participant "Location Service" as Location
participant "Movie Service" as Movie
participant "Payment Gateway" as Payment
participant "Ticketing System" as Ticketing

User -> BMSApp: Open App
BMSApp -> Auth: Check if User is logged in
alt User Not Logged In
    BMSApp -> User: Show login or registration screen
    User -> BMSApp: Login or Register
    BMSApp -> Auth: Authenticate user
    Auth -> BMSApp: User logged in successfully
else User Logged In
    Auth -> BMSApp: User is already logged in
end

BMSApp -> User: Prompt to input current location
User -> BMSApp: Enter current city/location
BMSApp -> Location: Fetch available cities and validate location
Location -> BMSApp: Return valid location

BMSApp -> Movie: Fetch movies available in the selected city
Movie -> BMSApp: Return list of movies available in the city

User -> BMSApp: Select movie
BMSApp -> Movie: Fetch movie details and showtimes
Movie -> BMSApp: Return movie details and showtimes

User -> BMSApp: Select date and time
alt Showtimes Available
    BMSApp -> Ticketing: Check seat availability
    Ticketing -> BMSApp: Seats available
else Showtimes Not Available
    BMSApp -> User: Prompt user to select another date
    User -> BMSApp: Select other date
    BMSApp -> Movie: Fetch movie details and showtimes for new date
    Movie -> BMSApp: Return new showtimes
end

User -> BMSApp: Select theater and seats
BMSApp -> Ticketing: Check seat availability in selected theater
Ticketing -> BMSApp: Confirm seats are available

User -> BMSApp: Proceed to payment
BMSApp -> Payment: Initialize payment
Payment -> Payment: Process payment
Payment -> BMSApp: Payment successful
alt Payment Failed
    BMSApp -> User: Payment failed, retry or select another payment method
else
    BMSApp -> Ticketing: Confirm booking and issue tickets
    Ticketing -> BMSApp: Booking confirmed, generate ticket
    BMSApp -> User: Show booking confirmation and ticket details
end
@enduml

PlantUML version 1.2020.02(Sun Mar 01 15:52:07 IST 2020)
(GPL source distribution)
Java Runtime: OpenJDK Runtime Environment
JVM: OpenJDK 64-Bit Server VM
Java Version: 11.0.22+7-post-Ubuntu-0ubuntu222.04.1
Operating System: Linux
Default Encoding: UTF-8
Language: en
Country: IN
--></g></svg>